<svg width="95" height="26" viewBox="0 0 95 26" fill="none" xmlns="http://www.w3.org/2000/svg">
<path d="M43.2685 16.2185L45.3941 17.7618C44.8312 18.7129 43.9868 19.4894 42.8609 20.0912C41.735 20.6735 40.5509 20.9647 39.3085 20.9647C37.2121 20.9647 35.465 20.2853 34.0674 18.9265C32.6891 17.5676 32 15.8691 32 13.8309C32 11.7926 32.6794 10.0941 34.0382 8.7353C35.3971 7.37647 37.0956 6.69706 39.1338 6.69706C40.2985 6.69706 41.3953 6.96882 42.4241 7.51235C43.4529 8.03647 44.2974 8.75471 44.9574 9.66706L42.9191 11.385C41.9291 10.0068 40.6674 9.31765 39.1338 9.31765C37.8915 9.31765 36.8529 9.74471 36.0182 10.5988C35.1835 11.4529 34.7662 12.5303 34.7662 13.8309C34.7662 15.1703 35.1932 16.2574 36.0474 17.0921C36.9015 17.9268 37.9885 18.3441 39.3085 18.3441C40.8809 18.3441 42.2009 17.6356 43.2685 16.2185Z" fill="white"/>
<path d="M47.4403 20.6735V0H50.2065V20.6735H47.4403Z" fill="white"/>
<path d="M54.826 18.9265C53.4866 17.5676 52.8168 15.8691 52.8168 13.8309C52.8168 11.7926 53.4866 10.0941 54.826 8.7353C56.1848 7.37647 57.8736 6.69706 59.8924 6.69706C61.9113 6.69706 63.5904 7.37647 64.9298 8.7353C66.2886 10.0941 66.968 11.7926 66.968 13.8309C66.968 15.8691 66.2886 17.5676 64.9298 18.9265C63.5904 20.2853 61.9113 20.9647 59.8924 20.9647C57.8736 20.9647 56.1848 20.2853 54.826 18.9265ZM56.806 10.6279C55.9907 11.5015 55.583 12.5691 55.583 13.8309C55.583 15.0926 55.9907 16.1603 56.806 17.0338C57.6213 17.9074 58.6501 18.3441 59.8924 18.3441C61.1348 18.3441 62.1636 17.9074 62.9789 17.0338C63.7942 16.1603 64.2018 15.0926 64.2018 13.8309C64.2018 12.5691 63.7942 11.5015 62.9789 10.6279C62.1636 9.75441 61.1348 9.31765 59.8924 9.31765C58.6501 9.31765 57.6213 9.75441 56.806 10.6279Z" fill="white"/>
<path d="M68.2833 19.0721L69.7101 17.0338C71.0107 18.0432 72.3598 18.5479 73.7574 18.5479C74.398 18.5479 74.9513 18.3927 75.4171 18.0821C75.9024 17.7521 76.1451 17.3347 76.1451 16.83C76.1451 16.5388 76.0674 16.2865 75.9121 16.0729C75.7569 15.84 75.5142 15.6556 75.1842 15.5197C74.8736 15.3644 74.563 15.2479 74.2524 15.1703C73.9613 15.0732 73.5633 14.9665 73.0586 14.85C72.5733 14.7141 72.1754 14.5976 71.8648 14.5006C69.7683 13.8018 68.7201 12.6274 68.7201 10.9774C68.7201 9.59912 69.2248 8.54118 70.2342 7.80353C71.2436 7.06588 72.4277 6.69706 73.7866 6.69706C75.5724 6.69706 77.0866 7.20177 78.3289 8.21118L76.9021 10.1912C75.951 9.47294 74.9707 9.11382 73.9613 9.11382C73.2624 9.11382 72.6704 9.26912 72.1851 9.57971C71.7192 9.8903 71.4863 10.3076 71.4863 10.8318C71.4863 11.2588 71.6804 11.5791 72.0686 11.7926C72.4763 12.0062 73.0974 12.2197 73.9321 12.4332C74.5921 12.6079 75.1648 12.7924 75.6501 12.9865C76.1354 13.1612 76.6498 13.4135 77.1933 13.7435C77.7369 14.0735 78.1542 14.5006 78.4454 15.0247C78.756 15.5294 78.9113 16.1118 78.9113 16.7718C78.9113 18.0141 78.4066 19.0235 77.3971 19.8C76.4071 20.5765 75.2133 20.9647 73.8157 20.9647C71.6804 20.9647 69.8363 20.3338 68.2833 19.0721Z" fill="white"/>
<path d="M91.5797 16.3932V11.2685C90.5897 9.96794 89.2891 9.31765 87.678 9.31765C86.3968 9.31765 85.3388 9.76412 84.5041 10.6571C83.6888 11.5306 83.2812 12.5885 83.2812 13.8309C83.2812 15.0732 83.7082 16.1409 84.5624 17.0338C85.4359 17.9074 86.523 18.3441 87.8235 18.3441C89.3571 18.3441 90.6091 17.6938 91.5797 16.3932ZM91.6671 6.98824H94.3459V20.6735H91.6671V17.6162C91.6671 18.6062 91.2983 19.4118 90.5606 20.0329C89.823 20.6541 88.7844 20.9647 87.445 20.9647C86.1638 20.9647 85.0185 20.6638 84.0091 20.0621C82.9415 19.4409 82.0874 18.5868 81.4468 17.4997C80.8256 16.3932 80.515 15.1703 80.515 13.8309C80.515 12.4915 80.8353 11.2685 81.4759 10.1621C82.1165 9.05559 82.9706 8.19177 84.0382 7.57059C85.0282 6.98824 86.1444 6.69706 87.3868 6.69706C88.7262 6.69706 89.7744 7.00765 90.5315 7.62883C91.2885 8.23059 91.6671 8.98765 91.6671 9.9V6.98824Z" fill="white"/>
<path d="M13 24.3824C6.7137 24.3824 1.61765 19.2863 1.61765 13C1.61765 6.7137 6.7137 1.61765 13 1.61765C19.2863 1.61765 24.3824 6.7137 24.3824 13C24.3824 19.2863 19.2863 24.3824 13 24.3824Z" fill="#0A0A0C" stroke="white" stroke-width="3.23529"/>
<rect x="8.75" y="8.75" width="8.5" height="8.5" rx="3.23529" fill="white"/>
</svg>
