<svg width="110" height="34" viewBox="0 0 110 34" fill="none" xmlns="http://www.w3.org/2000/svg">
    <path d="M51.3288 20.2951L53.4544 21.8383C52.8915 22.7895 52.0471 23.566 50.9212 24.1677C49.7953 24.7501 48.6112 25.0412 47.3688 25.0412C45.2724 25.0412 43.5253 24.3618 42.1277 23.003C40.7494 21.6442 40.0603 19.9457 40.0603 17.9074C40.0603 15.8692 40.7397 14.1707 42.0985 12.8118C43.4574 11.453 45.1559 10.7736 47.1941 10.7736C48.3588 10.7736 49.4556 11.0454 50.4844 11.5889C51.5132 12.113 52.3577 12.8312 53.0177 13.7436L50.9794 15.4615C49.9894 14.0833 48.7277 13.3942 47.1941 13.3942C45.9518 13.3942 44.9132 13.8212 44.0785 14.6754C43.2438 15.5295 42.8265 16.6068 42.8265 17.9074C42.8265 19.2468 43.2535 20.3339 44.1077 21.1686C44.9618 22.0033 46.0488 22.4207 47.3688 22.4207C48.9412 22.4207 50.2612 21.7121 51.3288 20.2951Z" fill="white"/>
    <path d="M55.5006 24.7501V4.07654H58.2668V24.7501H55.5006Z" fill="white"/>
    <path d="M62.8863 23.003C61.5469 21.6442 60.8771 19.9457 60.8771 17.9074C60.8771 15.8692 61.5469 14.1707 62.8863 12.8118C64.2451 11.453 65.9339 10.7736 67.9527 10.7736C69.9716 10.7736 71.6507 11.453 72.9901 12.8118C74.3489 14.1707 75.0283 15.8692 75.0283 17.9074C75.0283 19.9457 74.3489 21.6442 72.9901 23.003C71.6507 24.3618 69.9716 25.0412 67.9527 25.0412C65.9339 25.0412 64.2451 24.3618 62.8863 23.003ZM64.8663 14.7045C64.051 15.578 63.6433 16.6457 63.6433 17.9074C63.6433 19.1692 64.051 20.2368 64.8663 21.1104C65.6816 21.9839 66.7104 22.4207 67.9527 22.4207C69.1951 22.4207 70.2239 21.9839 71.0392 21.1104C71.8545 20.2368 72.2621 19.1692 72.2621 17.9074C72.2621 16.6457 71.8545 15.578 71.0392 14.7045C70.2239 13.831 69.1951 13.3942 67.9527 13.3942C66.7104 13.3942 65.6816 13.831 64.8663 14.7045Z" fill="white"/>
    <path d="M76.3436 23.1486L77.7704 21.1104C79.071 22.1198 80.4201 22.6245 81.8177 22.6245C82.4583 22.6245 83.0116 22.4692 83.4774 22.1586C83.9627 21.8286 84.2054 21.4112 84.2054 20.9065C84.2054 20.6154 84.1277 20.363 83.9724 20.1495C83.8172 19.9165 83.5745 19.7321 83.2445 19.5962C82.9339 19.441 82.6233 19.3245 82.3127 19.2468C82.0216 19.1498 81.6236 19.043 81.1189 18.9265C80.6336 18.7907 80.2357 18.6742 79.9251 18.5771C77.8286 17.8783 76.7804 16.7039 76.7804 15.0539C76.7804 13.6757 77.2851 12.6177 78.2945 11.8801C79.3039 11.1424 80.488 10.7736 81.8469 10.7736C83.6327 10.7736 85.1469 11.2783 86.3892 12.2877L84.9624 14.2677C84.0113 13.5495 83.031 13.1904 82.0216 13.1904C81.3227 13.1904 80.7307 13.3457 80.2454 13.6562C79.7795 13.9668 79.5466 14.3842 79.5466 14.9083C79.5466 15.3354 79.7407 15.6557 80.1289 15.8692C80.5366 16.0827 81.1577 16.2962 81.9924 16.5098C82.6524 16.6845 83.2251 16.8689 83.7104 17.063C84.1957 17.2377 84.7101 17.4901 85.2536 17.8201C85.7972 18.1501 86.2145 18.5771 86.5057 19.1012C86.8163 19.606 86.9716 20.1883 86.9716 20.8483C86.9716 22.0907 86.4669 23.1001 85.4574 23.8765C84.4674 24.653 83.2736 25.0412 81.876 25.0412C79.7407 25.0412 77.8966 24.4104 76.3436 23.1486Z" fill="white"/>
    <path d="M99.64 20.4698V15.3451C98.65 14.0445 97.3494 13.3942 95.7383 13.3942C94.4571 13.3942 93.3991 13.8407 92.5644 14.7336C91.7491 15.6071 91.3415 16.6651 91.3415 17.9074C91.3415 19.1498 91.7686 20.2174 92.6227 21.1104C93.4962 21.9839 94.5833 22.4207 95.8838 22.4207C97.4174 22.4207 98.6694 21.7704 99.64 20.4698ZM99.7274 11.0648H102.406V24.7501H99.7274V21.6927C99.7274 22.6827 99.3586 23.4883 98.6209 24.1095C97.8833 24.7307 96.8447 25.0412 95.5053 25.0412C94.2241 25.0412 93.0788 24.7404 92.0694 24.1386C91.0018 23.5174 90.1477 22.6633 89.5071 21.5762C88.8859 20.4698 88.5753 19.2468 88.5753 17.9074C88.5753 16.568 88.8956 15.3451 89.5362 14.2386C90.1768 13.1321 91.0309 12.2683 92.0986 11.6471C93.0886 11.0648 94.2047 10.7736 95.4471 10.7736C96.7865 10.7736 97.8347 11.0842 98.5918 11.7054C99.3488 12.3071 99.7274 13.0642 99.7274 13.9765V11.0648Z" fill="white"/>
    <path d="M21 28.3824C14.7137 28.3824 9.61765 23.2863 9.61765 17C9.61765 10.7137 14.7137 5.61765 21 5.61765C27.2863 5.61765 32.3824 10.7137 32.3824 17C32.3824 23.2863 27.2863 28.3824 21 28.3824Z" fill="#0A0A0C" stroke="white" stroke-width="3.23529"/>
    <rect x="16.75" y="12.7498" width="8.5" height="8.5" rx="3.23529" fill="white"/>
</svg>
